<?xml version="1.0" encoding="UTF-8" standalone="no"?>
<!-- Created with Bouml (http://bouml.free.fr/) -->
<!DOCTYPE svg PUBLIC "-//W3C//DTD SVG 1.1//EN" "http://www.w3.org/Graphics/SVG/1.1/DTD/svg11.dtd">
<svg width="1308" height="717" version="1.1" xmlns="http://www.w3.org/2000/svg">
<g>
	<rect fill="none" stroke="black" stroke-width="1" stroke-opacity="1" x="514" y="22" width="254" height="13" />
	<rect fill="none" stroke="black" stroke-width="1" stroke-opacity="1" x="514" y="36" width="637" height="332" />
	<text font-family="Helvetica" font-size="6" fill="#000000" xml:space="preserve" text-anchor="middle" x="833" y="44">project</text>
</g>
<g>
	<rect fill="none" stroke="black" stroke-width="1" stroke-opacity="1" x="507" y="432" width="245" height="13" />
	<rect fill="none" stroke="black" stroke-width="1" stroke-opacity="1" x="507" y="446" width="615" height="272" />
	<text font-family="Helvetica" font-size="6" fill="#000000" xml:space="preserve" text-anchor="middle" x="815" y="454">projectpairmachine</text>
</g>
<g>
	<rect fill="#cbcbcb" stroke="none" stroke-opacity="1" x="879" y="232" width="2" height="98" />
	<rect fill="#cbcbcb" stroke="none" stroke-opacity="1" x="769" y="328" width="112" height="2" />
	<rect fill="#ffffc0" stroke="black" stroke-width="1" stroke-opacity="1" x="766" y="229" width="113" height="99" />
	<text font-family="Helvetica" font-size="6" fill="#000000" xml:space="preserve" font-weight="bold" text-anchor="middle" x="823" y="236">Projects</text>
	<line stroke="black" stroke-opacity="1" x1="766" y1="242" x2="879" y2="242" />
	<text font-family="Helvetica" font-size="6" fill="#000000" xml:space="preserve" text-decoration="underline" x="768" y="249">CPP_FILTER</text>
	<text font-family="Helvetica" font-size="6" fill="#000000" xml:space="preserve" text-decoration="underline" x="768" y="261">JAVA_FILTER</text>
	<text font-family="Helvetica" font-size="6" fill="#000000" xml:space="preserve" text-decoration="underline" x="768" y="273">CPP_AND_JAVA_FILTER</text>
	<text font-family="Helvetica" font-size="6" fill="#000000" xml:space="preserve" text-decoration="underline" x="768" y="285">TXT_FILTER</text>
	<text font-family="Helvetica" font-size="6" fill="#000000" xml:space="preserve" text-decoration="underline" x="768" y="297">NO_FILTER</text>
	<line stroke="black" stroke-opacity="1" x1="766" y1="303" x2="879" y2="303" />
	<text font-family="Helvetica" font-size="6" fill="#000000" xml:space="preserve" x="768" y="310">Projects()</text>
	<text font-family="Helvetica" font-size="6" fill="#000000" xml:space="preserve" text-decoration="underline" x="768" y="322">compare()</text>
</g>
<g>
	<rect fill="#cbcbcb" stroke="none" stroke-opacity="1" x="398" y="289" width="2" height="121" />
	<rect fill="#cbcbcb" stroke="none" stroke-opacity="1" x="334" y="408" width="66" height="2" />
	<rect fill="#ffffc0" stroke="black" stroke-width="1" stroke-opacity="1" x="331" y="286" width="67" height="122" />
	<text font-family="Helvetica" font-size="6" fill="#000000" xml:space="preserve" font-weight="bold" text-anchor="middle" x="365" y="293">Token</text>
	<line stroke="black" stroke-opacity="1" x1="331" y1="299" x2="398" y2="299" />
	<text font-family="Helvetica" font-size="6" fill="#000000" xml:space="preserve" x="333" y="306">id</text>
	<text font-family="Helvetica" font-size="6" fill="#000000" xml:space="preserve" x="333" y="318">lineNo</text>
	<text font-family="Helvetica" font-size="6" fill="#000000" xml:space="preserve" x="333" y="330">value</text>
	<line stroke="black" stroke-opacity="1" x1="331" y1="336" x2="398" y2="336" />
	<text font-family="Helvetica" font-size="6" fill="#000000" xml:space="preserve" x="333" y="343">Token()</text>
	<text font-family="Helvetica" font-size="6" fill="#000000" xml:space="preserve" x="333" y="355">getLineNo()</text>
	<text font-family="Helvetica" font-size="6" fill="#000000" xml:space="preserve" x="333" y="367">getId()</text>
	<text font-family="Helvetica" font-size="6" fill="#000000" xml:space="preserve" x="333" y="379">equals()</text>
	<text font-family="Helvetica" font-size="6" fill="#000000" xml:space="preserve" x="333" y="391">hashCode()</text>
</g>
<g>
	<rect fill="#cbcbcb" stroke="none" stroke-opacity="1" x="208" y="404" width="2" height="121" />
	<rect fill="#cbcbcb" stroke="none" stroke-opacity="1" x="86" y="523" width="124" height="2" />
	<rect fill="#ffffc0" stroke="black" stroke-width="1" stroke-opacity="1" x="83" y="401" width="125" height="122" />
	<text font-family="Helvetica" font-size="6" fill="#000000" xml:space="preserve" font-weight="bold" text-anchor="middle" x="146" y="408">HashingTokenizer</text>
	<line stroke="black" stroke-opacity="1" x1="83" y1="414" x2="208" y2="414" />
	<text font-family="Helvetica" font-size="6" fill="#000000" xml:space="preserve" x="85" y="421">tokenizer</text>
	<text font-family="Helvetica" font-size="6" fill="#000000" xml:space="preserve" text-decoration="underline" x="85" y="433">QUOTE</text>
	<line stroke="black" stroke-opacity="1" x1="83" y1="439" x2="208" y2="439" />
	<text font-family="Helvetica" font-size="6" fill="#000000" xml:space="preserve" x="85" y="446">addCharacterToken()</text>
	<text font-family="Helvetica" font-size="6" fill="#000000" xml:space="preserve" x="85" y="458">isAtEnd()</text>
	<text font-family="Helvetica" font-size="6" fill="#000000" xml:space="preserve" x="85" y="470">getNextTokenInfo()</text>
	<text font-family="Helvetica" font-size="6" fill="#000000" xml:space="preserve" x="85" y="482">getNextTokenCluster()</text>
	<text font-family="Helvetica" font-size="6" fill="#000000" xml:space="preserve" x="85" y="494">remainingTokenClusters()</text>
	<text font-family="Helvetica" font-size="6" fill="#000000" xml:space="preserve" x="85" y="506">HashingTokenizer()</text>
</g>
<g>
	<rect fill="#cbcbcb" stroke="none" stroke-opacity="1" x="658" y="98" width="2" height="78" />
	<rect fill="#cbcbcb" stroke="none" stroke-opacity="1" x="568" y="174" width="92" height="2" />
	<rect fill="#ffffc0" stroke="black" stroke-width="1" stroke-opacity="1" x="565" y="95" width="93" height="79" />
	<text font-family="Helvetica" font-size="6" fill="#000000" xml:space="preserve" font-weight="bold" text-anchor="middle" x="612" y="102">MultiProjectStorage</text>
	<line stroke="black" stroke-opacity="1" x1="565" y1="108" x2="658" y2="108" />
	<line stroke="black" stroke-opacity="1" x1="565" y1="113" x2="658" y2="113" />
	<text font-family="Helvetica" font-size="6" fill="#000000" xml:space="preserve" x="567" y="120">iterator()</text>
	<text font-family="Helvetica" font-size="6" fill="#000000" xml:space="preserve" text-decoration="underline" x="567" y="132">projectsIn()</text>
	<text font-family="Helvetica" font-size="6" fill="#000000" xml:space="preserve" text-decoration="underline" x="567" y="144">fromCollection()</text>
	<text font-family="Helvetica" font-size="6" fill="#000000" xml:space="preserve" x="567" y="156">MultiProjectStorage()</text>
	<text font-family="Helvetica" font-size="6" fill="#000000" xml:space="preserve" x="567" y="168">MultiProjectStorage()</text>
</g>
<g>
	<line stroke="black" stroke-opacity="1" x1="821" y1="331" x2="814" y2="336" />
	<line stroke="black" stroke-opacity="1" x1="821" y1="331" x2="826" y2="337" />
	<line stroke-dasharray="4,4" stroke="black" stroke-opacity="1" x1="818" y1="431" x2="821" y2="331" />
</g>
<g>
	<rect fill="#cbcbcb" stroke="none" stroke-opacity="1" x="989" y="586" width="2" height="54" />
	<rect fill="#cbcbcb" stroke="none" stroke-opacity="1" x="937" y="638" width="54" height="2" />
	<rect fill="#ffffc0" stroke="black" stroke-width="1" stroke-opacity="1" x="934" y="583" width="55" height="55" />
	<text font-family="Helvetica" font-size="6" fill="#000000" xml:space="preserve" font-weight="bold" text-anchor="middle" x="962" y="590">ResultRow</text>
	<line stroke="black" stroke-opacity="1" x1="934" y1="596" x2="989" y2="596" />
	<line stroke="black" stroke-opacity="1" x1="934" y1="601" x2="989" y2="601" />
	<text font-family="Helvetica" font-size="6" fill="#000000" xml:space="preserve" x="936" y="608">ResultRow()</text>
	<text font-family="Helvetica" font-size="6" fill="#000000" xml:space="preserve" x="936" y="620">getResults()</text>
	<text font-family="Helvetica" font-size="6" fill="#000000" xml:space="preserve" x="936" y="632">getProject()</text>
</g>
<g>
	<rect fill="#cbcbcb" stroke="none" stroke-opacity="1" x="1112" y="580" width="2" height="66" />
	<rect fill="#cbcbcb" stroke="none" stroke-opacity="1" x="1028" y="644" width="86" height="2" />
	<rect fill="#ffffc0" stroke="black" stroke-width="1" stroke-opacity="1" x="1025" y="577" width="87" height="67" />
	<text font-family="Helvetica" font-size="6" fill="#000000" xml:space="preserve" font-weight="bold" text-anchor="middle" x="1069" y="584">ResultSet</text>
	<line stroke="black" stroke-opacity="1" x1="1025" y1="590" x2="1112" y2="590" />
	<line stroke="black" stroke-opacity="1" x1="1025" y1="595" x2="1112" y2="595" />
	<text font-family="Helvetica" font-size="6" fill="#000000" xml:space="preserve" x="1027" y="602">ResultSet()</text>
	<text font-family="Helvetica" font-size="6" fill="#000000" xml:space="preserve" x="1027" y="614">add()</text>
	<text font-family="Helvetica" font-size="6" fill="#000000" xml:space="preserve" x="1027" y="626">containsResultFor()</text>
	<text font-family="Helvetica" font-size="6" fill="#000000" xml:space="preserve" x="1027" y="638">iterator()</text>
</g>
<g>
	<rect fill="#cbcbcb" stroke="none" stroke-opacity="1" x="897" y="589" width="2" height="54" />
	<rect fill="#cbcbcb" stroke="none" stroke-opacity="1" x="745" y="641" width="154" height="2" />
	<rect fill="#ffffc0" stroke="black" stroke-width="1" stroke-opacity="1" x="742" y="586" width="155" height="55" />
	<text font-family="Helvetica" font-size="6" fill="#000000" xml:space="preserve" font-weight="bold" text-anchor="middle" x="820" y="593">ProjectsCorrelationMatrixBuilder</text>
	<line stroke="black" stroke-opacity="1" x1="742" y1="599" x2="897" y2="599" />
	<line stroke="black" stroke-opacity="1" x1="742" y1="604" x2="897" y2="604" />
	<text font-family="Helvetica" font-size="6" fill="#000000" xml:space="preserve" x="744" y="611">createMatrix()</text>
	<text font-family="Helvetica" font-size="6" fill="#000000" xml:space="preserve" x="744" y="623">addResultOneWay()</text>
	<text font-family="Helvetica" font-size="6" fill="#000000" xml:space="preserve" x="744" y="635">addRecordIfNone()</text>
</g>
<g>
	<rect fill="#cbcbcb" stroke="none" stroke-opacity="1" x="692" y="610" width="2" height="54" />
	<rect fill="#cbcbcb" stroke="none" stroke-opacity="1" x="574" y="662" width="120" height="2" />
	<rect fill="#ffffc0" stroke="black" stroke-width="1" stroke-opacity="1" x="571" y="607" width="121" height="55" />
	<text font-family="Helvetica" font-size="6" fill="#000000" xml:space="preserve" font-weight="bold" text-anchor="middle" x="632" y="614">ProjectsCorrelationMatrix</text>
	<line stroke="black" stroke-opacity="1" x1="571" y1="620" x2="692" y2="620" />
	<line stroke="black" stroke-opacity="1" x1="571" y1="625" x2="692" y2="625" />
	<text font-family="Helvetica" font-size="6" fill="#000000" xml:space="preserve" x="573" y="632">ProjectsCorrelationMatrix()</text>
	<text font-family="Helvetica" font-size="6" fill="#000000" xml:space="preserve" x="573" y="644">getRows()</text>
	<text font-family="Helvetica" font-size="6" fill="#000000" xml:space="preserve" x="573" y="656">iterator()</text>
</g>
<g>
	<rect fill="#cbcbcb" stroke="none" stroke-opacity="1" x="181" y="290" width="2" height="52" />
	<rect fill="#cbcbcb" stroke="none" stroke-opacity="1" x="62" y="340" width="121" height="2" />
	<rect fill="#ffffc0" stroke="black" stroke-width="1" stroke-opacity="1" x="59" y="287" width="122" height="53" />
	<text font-family="Helvetica" font-size="6" fill="#000000" xml:space="preserve" font-weight="bold" text-anchor="middle" x="120" y="294">TokenHashingStrategy</text>
	<line stroke="black" stroke-opacity="1" x1="59" y1="300" x2="181" y2="300" />
	<line stroke="black" stroke-opacity="1" x1="59" y1="305" x2="181" y2="305" />
	<text font-family="Helvetica" font-size="6" fill="#000000" xml:space="preserve" x="61" y="312">TokenHashingStrategy()</text>
	<text font-family="Helvetica" font-size="6" fill="#000000" xml:space="preserve" x="61" y="324">compare()</text>
</g>
<g>
	<ellipse fill="#ffffc0" stroke="black" stroke-width="1" stroke-opacity="1" cx="881" cy="506" rx="6" ry="6" />
	<text font-family="Helvetica" font-size="6" fill="#000000" xml:space="preserve" font-weight="bold" text-anchor="middle" x="881" y="520">MultiProjectComparison</text>
	<line stroke="black" stroke-opacity="1" x1="824" y1="526" x2="938" y2="526" />
	<line stroke="black" stroke-opacity="1" x1="824" y1="531" x2="938" y2="531" />
</g>
<g>
	<line stroke="black" stroke-opacity="1" x1="695" y1="627" x2="701" y2="632" />
	<line stroke="black" stroke-opacity="1" x1="695" y1="627" x2="700" y2="620" />
	<line stroke-dasharray="4,4" stroke="black" stroke-opacity="1" x1="741" y1="622" x2="695" y2="627" />
</g>
<g>
	<line stroke="black" stroke-opacity="1" x1="933" y1="612" x2="900" y2="612" />
	<polygon fill="#ffffff" stroke="black" stroke-opacity="1" points="933,612 927,618 921,612 927,606" />
</g>
<g>
	<line stroke="black" stroke-opacity="1" x1="1024" y1="612" x2="992" y2="612" />
	<polygon fill="#ffffff" stroke="black" stroke-opacity="1" points="1024,612 1018,618 1012,612 1018,606" />
</g>
<g>
	<rect fill="#cbcbcb" stroke="none" stroke-opacity="1" x="407" y="165" width="2" height="64" />
	<rect fill="#cbcbcb" stroke="none" stroke-opacity="1" x="330" y="227" width="79" height="2" />
	<rect fill="#ffffc0" stroke="black" stroke-width="1" stroke-opacity="1" x="327" y="162" width="80" height="65" />
	<text font-family="Helvetica" font-size="6" fill="#000000" xml:space="preserve" font-weight="bold" text-anchor="middle" x="367" y="169">TokenCluster</text>
	<line stroke="black" stroke-opacity="1" x1="327" y1="175" x2="407" y2="175" />
	<line stroke="black" stroke-opacity="1" x1="327" y1="180" x2="407" y2="180" />
	<text font-family="Helvetica" font-size="6" fill="#000000" xml:space="preserve" x="329" y="187">equals()</text>
	<text font-family="Helvetica" font-size="6" fill="#000000" xml:space="preserve" x="329" y="199">hashCode()</text>
	<text font-family="Helvetica" font-size="6" fill="#000000" xml:space="preserve" x="329" y="211">TokenCluster()</text>
</g>
<g>
	<rect fill="#cbcbcb" stroke="none" stroke-opacity="1" x="878" y="94" width="2" height="86" />
	<rect fill="#cbcbcb" stroke="none" stroke-opacity="1" x="770" y="178" width="110" height="2" />
	<rect fill="#ffffc0" stroke="black" stroke-width="1" stroke-opacity="1" x="767" y="91" width="111" height="87" />
	<text font-family="Helvetica" font-size="6" fill="#000000" xml:space="preserve" font-weight="bold" text-anchor="middle" x="823" y="98">Project</text>
	<line stroke="black" stroke-opacity="1" x1="767" y1="104" x2="878" y2="104" />
	<text font-family="Helvetica" font-size="6" fill="#000000" xml:space="preserve" x="769" y="111">name</text>
	<text font-family="Helvetica" font-size="6" fill="#000000" xml:space="preserve" x="769" y="123">path</text>
	<line stroke="black" stroke-opacity="1" x1="767" y1="129" x2="878" y2="129" />
	<text font-family="Helvetica" font-size="6" fill="#000000" xml:space="preserve" x="769" y="136">Project()</text>
	<text font-family="Helvetica" font-size="6" fill="#000000" xml:space="preserve" x="769" y="148">getConcatenatedReader()</text>
	<text font-family="Helvetica" font-size="6" fill="#000000" xml:space="preserve" x="769" y="160">getPath()</text>
	<text font-family="Helvetica" font-size="6" fill="#000000" xml:space="preserve" x="769" y="172">getName()</text>
</g>
<g>
	<text font-family="Helvetica" font-size="6" fill="#000000" xml:space="preserve" x="683" y="141">&lt;&lt;Collection&gt;&gt;</text>
</g>
<g>
	<text font-family="Helvetica" font-size="6" fill="#000000" xml:space="preserve" x="340" y="240">&lt;&lt;Collection&gt;&gt;</text>
</g>
<g>
	<line stroke="black" stroke-opacity="1" x1="766" y1="136" x2="760" y2="130" />
	<line stroke="black" stroke-opacity="1" x1="766" y1="136" x2="760" y2="142" />
	<line stroke="black" stroke-opacity="1" x1="661" y1="136" x2="766" y2="136" />
</g>
<g>
	<line stroke="black" stroke-opacity="1" x1="366" y1="285" x2="372" y2="279" />
	<line stroke="black" stroke-opacity="1" x1="366" y1="285" x2="360" y2="278" />
	<line stroke="black" stroke-opacity="1" x1="367" y1="230" x2="366" y2="285" />
</g>
<g>
	<line stroke="black" stroke-opacity="1" x1="824" y1="181" x2="818" y2="187" />
	<line stroke="black" stroke-opacity="1" x1="824" y1="181" x2="830" y2="187" />
	<line stroke="black" stroke-opacity="1" x1="824" y1="228" x2="824" y2="181" />
</g>
<g>
	<rect fill="#cbcbcb" stroke="none" stroke-opacity="1" x="1101" y="478" width="2" height="62" />
	<rect fill="#cbcbcb" stroke="none" stroke-opacity="1" x="1037" y="538" width="66" height="2" />
	<rect fill="#ffffc0" stroke="black" stroke-width="1" stroke-opacity="1" x="1034" y="475" width="67" height="63" />
	<text font-family="Helvetica" font-size="6" fill="#000000" xml:space="preserve" font-weight="bold" text-anchor="middle" x="1068" y="482">ResultRecord</text>
	<line stroke="black" stroke-opacity="1" x1="1034" y1="488" x2="1101" y2="488" />
	<text font-family="Helvetica" font-size="6" fill="#000000" xml:space="preserve" x="1036" y="495">score</text>
	<line stroke="black" stroke-opacity="1" x1="1034" y1="501" x2="1101" y2="501" />
	<text font-family="Helvetica" font-size="6" fill="#000000" xml:space="preserve" x="1036" y="508">ResultRecord()</text>
	<text font-family="Helvetica" font-size="6" fill="#000000" xml:space="preserve" x="1036" y="520">getProject()</text>
	<text font-family="Helvetica" font-size="6" fill="#000000" xml:space="preserve" x="1036" y="532">getScore()</text>
</g>
<g>
	<rect fill="#cbcbcb" stroke="none" stroke-opacity="1" x="1131" y="217" width="2" height="98" />
	<rect fill="#cbcbcb" stroke="none" stroke-opacity="1" x="1051" y="313" width="82" height="2" />
	<rect fill="#ffffc0" stroke="black" stroke-width="1" stroke-opacity="1" x="1048" y="214" width="83" height="99" />
	<text font-family="Helvetica" font-size="6" fill="#000000" xml:space="preserve" font-weight="bold" text-anchor="middle" x="1090" y="221">PathFilterBuilder</text>
	<line stroke="black" stroke-opacity="1" x1="1048" y1="227" x2="1131" y2="227" />
	<text font-family="Helvetica" font-size="6" fill="#000000" xml:space="preserve" x="1050" y="234">filters</text>
	<line stroke="black" stroke-opacity="1" x1="1048" y1="240" x2="1131" y2="240" />
	<text font-family="Helvetica" font-size="6" fill="#000000" xml:space="preserve" x="1050" y="247">addAllFilters()</text>
	<text font-family="Helvetica" font-size="6" fill="#000000" xml:space="preserve" x="1050" y="259">addFilter()</text>
	<text font-family="Helvetica" font-size="6" fill="#000000" xml:space="preserve" x="1050" y="271">removeFilter()</text>
	<text font-family="Helvetica" font-size="6" fill="#000000" xml:space="preserve" x="1050" y="283">removeAllFilters()</text>
	<text font-family="Helvetica" font-size="6" fill="#000000" xml:space="preserve" x="1050" y="295">setFilterType()</text>
	<text font-family="Helvetica" font-size="6" fill="#000000" xml:space="preserve" x="1050" y="307">createFilter()</text>
</g>
<g>
	<line stroke="black" stroke-opacity="1" x1="1069" y1="541" x2="1069" y2="576" />
	<polygon fill="#ffffff" stroke="black" stroke-opacity="1" points="1069,541 1075,547 1069,553 1063,547" />
</g>
<g>
	<ellipse fill="#ffffc0" stroke="black" stroke-width="1" stroke-opacity="1" cx="282" cy="474" rx="6" ry="6" />
	<text font-family="Helvetica" font-size="6" fill="#000000" xml:space="preserve" font-weight="bold" text-anchor="middle" x="283" y="488">ComparisonStrategy</text>
	<line stroke="black" stroke-opacity="1" x1="226" y1="494" x2="339" y2="494" />
	<line stroke="black" stroke-opacity="1" x1="226" y1="499" x2="339" y2="499" />
	<text font-family="Helvetica" font-size="6" fill="#000000" xml:space="preserve" x="228" y="506">compare()</text>
</g>
<g>
	<rect fill="none" stroke="black" stroke-width="1" stroke-opacity="1" x="50" y="105" width="147" height="13" />
	<rect fill="none" stroke="black" stroke-width="1" stroke-opacity="1" x="50" y="119" width="371" height="482" />
	<text font-family="Helvetica" font-size="6" fill="#000000" xml:space="preserve" text-anchor="middle" x="236" y="127">algorithm</text>
</g>
<g>
	<line stroke-dasharray="4,4" stroke="#000000" stroke-opacity="1" x1="147" y1="343" x2="253" y2="462" />
	<line stroke="#000000" stroke-opacity="1" x1="257" y1="467" x2="257" y2="458" />
	<line stroke="#000000" stroke-opacity="1" x1="257" y1="467" x2="248" y2="466" />
	<line stroke="#000000" stroke-opacity="1" x1="257" y1="458" x2="248" y2="466" />
</g>
<g>
	<text font-family="Helvetica" font-size="6" fill="#000000" xml:space="preserve" x="264" y="202">&lt;&lt;HashMap&gt;&gt;</text>
</g>
<g>
	<line stroke="black" stroke-opacity="1" x1="326" y1="195" x2="320" y2="189" />
	<line stroke="black" stroke-opacity="1" x1="326" y1="195" x2="320" y2="201" />
	<line stroke="black" stroke-opacity="1" x1="257" y1="195" x2="326" y2="195" />
</g>
<g>
	<rect fill="#cbcbcb" stroke="none" stroke-opacity="1" x="254" y="148" width="2" height="97" />
	<rect fill="#cbcbcb" stroke="none" stroke-opacity="1" x="100" y="243" width="156" height="2" />
	<rect fill="#ffffc0" stroke="black" stroke-width="1" stroke-opacity="1" x="97" y="145" width="157" height="98" />
	<text font-family="Helvetica" font-size="6" fill="#000000" xml:space="preserve" font-weight="bold" text-anchor="middle" x="176" y="152">TokenClusterOccurrenceTable</text>
	<line stroke="black" stroke-opacity="1" x1="97" y1="158" x2="254" y2="158" />
	<text font-family="Helvetica" font-size="6" fill="#000000" xml:space="preserve" text-decoration="underline" x="99" y="165">DEFAULT_CLUSTER_SIZE</text>
	<line stroke="black" stroke-opacity="1" x1="97" y1="171" x2="254" y2="171" />
	<text font-family="Helvetica" font-size="6" fill="#000000" xml:space="preserve" x="99" y="178">TokenClusterOccurrenceTable()</text>
	<text font-family="Helvetica" font-size="6" fill="#000000" xml:space="preserve" x="99" y="190">addOccurred()</text>
	<text font-family="Helvetica" font-size="6" fill="#000000" xml:space="preserve" x="99" y="202">tabulate()</text>
	<text font-family="Helvetica" font-size="6" fill="#000000" xml:space="preserve" x="99" y="214">collisionCount()</text>
	<text font-family="Helvetica" font-size="6" fill="#000000" xml:space="preserve" x="99" y="226">total()</text>
</g>
<g>
	<line stroke="black" stroke-opacity="1" x1="421" y1="328" x2="427" y2="333" />
	<line stroke="black" stroke-opacity="1" x1="421" y1="328" x2="426" y2="321" />
	<line stroke-dasharray="4,4" stroke="black" stroke-opacity="1" x1="765" y1="286" x2="421" y2="328" />
</g>
<g>
	<rect fill="#cbcbcb" stroke="none" stroke-opacity="1" x="704" y="491" width="2" height="54" />
	<rect fill="#cbcbcb" stroke="none" stroke-opacity="1" x="562" y="543" width="144" height="2" />
	<rect fill="#ffffc0" stroke="black" stroke-width="1" stroke-opacity="1" x="559" y="488" width="145" height="55" />
	<text font-family="Helvetica" font-size="6" fill="#000000" xml:space="preserve" font-weight="bold" text-anchor="middle" x="632" y="495">SimpleMultiProjectComparison</text>
	<line stroke="black" stroke-opacity="1" x1="559" y1="501" x2="704" y2="501" />
	<line stroke="black" stroke-opacity="1" x1="559" y1="506" x2="704" y2="506" />
	<text font-family="Helvetica" font-size="6" fill="#000000" xml:space="preserve" x="561" y="513">SimpleMultiProjectComparison()</text>
	<text font-family="Helvetica" font-size="6" fill="#000000" xml:space="preserve" x="561" y="525">compareAll()</text>
	<text font-family="Helvetica" font-size="6" fill="#000000" xml:space="preserve" x="561" y="537">compareAgainstAll()</text>
</g>
<g>
	<line stroke="black" stroke-opacity="1" x1="339" y1="498" x2="344" y2="504" />
	<line stroke="black" stroke-opacity="1" x1="339" y1="498" x2="345" y2="492" />
	<line stroke="black" stroke-opacity="1" x1="558" y1="511" x2="339" y2="498" />
</g>
<g>
	<line stroke="#000000" stroke-opacity="1" x1="707" y1="517" x2="817" y2="517" />
	<line stroke="#000000" stroke-opacity="1" x1="823" y1="517" x2="817" y2="511" />
	<line stroke="#000000" stroke-opacity="1" x1="823" y1="517" x2="817" y2="523" />
	<line stroke="#000000" stroke-opacity="1" x1="817" y1="511" x2="817" y2="523" />
</g>
<g>
	<line stroke="black" stroke-opacity="1" x1="633" y1="606" x2="639" y2="600" />
	<line stroke="black" stroke-opacity="1" x1="633" y1="606" x2="627" y2="600" />
	<line stroke-dasharray="4,4" stroke="black" stroke-opacity="1" x1="633" y1="546" x2="633" y2="606" />
</g>
<g>
	<rect fill="#cbcbcb" stroke="none" stroke-opacity="1" x="1023" y="239" width="2" height="62" />
	<rect fill="#cbcbcb" stroke="none" stroke-opacity="1" x="969" y="299" width="56" height="2" />
	<rect fill="#ffffc0" stroke="black" stroke-width="1" stroke-opacity="1" x="966" y="236" width="57" height="63" />
	<text font-family="Helvetica" font-size="6" fill="#000000" xml:space="preserve" font-weight="bold" text-anchor="middle" x="995" y="243">PathFilter</text>
	<line stroke="black" stroke-opacity="1" x1="966" y1="249" x2="1023" y2="249" />
	<text font-family="Helvetica" font-size="6" fill="#000000" xml:space="preserve" x="968" y="256">filters</text>
	<line stroke="black" stroke-opacity="1" x1="966" y1="262" x2="1023" y2="262" />
	<text font-family="Helvetica" font-size="6" fill="#000000" xml:space="preserve" x="968" y="269">matchesAll()</text>
	<text font-family="Helvetica" font-size="6" fill="#000000" xml:space="preserve" x="968" y="281">PathFilter()</text>
	<text font-family="Helvetica" font-size="6" fill="#000000" xml:space="preserve" x="968" y="293">PathFilter()</text>
</g>
<g>
	<line stroke="black" stroke-opacity="1" x1="1026" y1="266" x2="1032" y2="272" />
	<line stroke="black" stroke-opacity="1" x1="1026" y1="266" x2="1032" y2="260" />
	<line stroke-dasharray="4,4" stroke="black" stroke-opacity="1" x1="1047" y1="266" x2="1026" y2="266" />
</g>
<g>
	<rect fill="#cbcbcb" stroke="none" stroke-opacity="1" x="697" y="222" width="2" height="54" />
	<rect fill="#cbcbcb" stroke="none" stroke-opacity="1" x="565" y="274" width="134" height="2" />
	<rect fill="#ffffc0" stroke="black" stroke-width="1" stroke-opacity="1" x="562" y="219" width="135" height="55" />
	<text font-family="Helvetica" font-size="6" fill="#000000" xml:space="preserve" font-weight="bold" text-anchor="middle" x="630" y="226">ProjectFlatReaderDistributor</text>
	<line stroke="black" stroke-opacity="1" x1="562" y1="232" x2="697" y2="232" />
	<line stroke="black" stroke-opacity="1" x1="562" y1="237" x2="697" y2="237" />
	<text font-family="Helvetica" font-size="6" fill="#000000" xml:space="preserve" x="564" y="244">ProjectFlatReaderDistributor()</text>
	<text font-family="Helvetica" font-size="6" fill="#000000" xml:space="preserve" x="564" y="256">ProjectFlatReaderDistributor()</text>
	<text font-family="Helvetica" font-size="6" fill="#000000" xml:space="preserve" x="564" y="268">distribute()</text>
</g>
<g>
	<text font-family="Helvetica" font-size="6" fill="#000000" xml:space="preserve" x="721" y="124">projects</text>
</g>
<g>
	<text font-family="Helvetica" font-size="6" fill="#000000" xml:space="preserve" x="376" y="274">tokens</text>
</g>
<g>
	<text font-family="Helvetica" font-size="6" fill="#000000" xml:space="preserve" x="265" y="184">occurrences</text>
</g>
<g>
	<text font-family="Helvetica" font-size="6" fill="#000000" xml:space="preserve" x="350" y="487">strategy</text>
</g>
<g>
	<rect fill="#cbcbcb" stroke="none" stroke-opacity="1" x="1030" y="82" width="2" height="110" />
	<rect fill="#cbcbcb" stroke="none" stroke-opacity="1" x="962" y="190" width="70" height="2" />
	<rect fill="#ffffc0" stroke="black" stroke-width="1" stroke-opacity="1" x="959" y="79" width="71" height="111" />
	<text font-family="Helvetica" font-size="6" fill="#000000" xml:space="preserve" font-weight="bold" text-anchor="middle" x="995" y="86">ProjectBuilder</text>
	<line stroke="black" stroke-opacity="1" x1="959" y1="92" x2="1030" y2="92" />
	<text font-family="Helvetica" font-size="6" fill="#000000" xml:space="preserve" x="961" y="99">path</text>
	<text font-family="Helvetica" font-size="6" fill="#000000" xml:space="preserve" x="961" y="111">name</text>
	<text font-family="Helvetica" font-size="6" fill="#000000" xml:space="preserve" x="961" y="123">globFilter</text>
	<line stroke="black" stroke-opacity="1" x1="959" y1="129" x2="1030" y2="129" />
	<text font-family="Helvetica" font-size="6" fill="#000000" xml:space="preserve" x="961" y="136">ProjectBuilder()</text>
	<text font-family="Helvetica" font-size="6" fill="#000000" xml:space="preserve" x="961" y="148">setPath()</text>
	<text font-family="Helvetica" font-size="6" fill="#000000" xml:space="preserve" x="961" y="160">setName()</text>
	<text font-family="Helvetica" font-size="6" fill="#000000" xml:space="preserve" x="961" y="172">setGlobFilter()</text>
	<text font-family="Helvetica" font-size="6" fill="#000000" xml:space="preserve" x="961" y="184">createProject()</text>
</g>
<g>
	<line stroke="black" stroke-opacity="1" x1="881" y1="136" x2="887" y2="142" />
	<line stroke="black" stroke-opacity="1" x1="881" y1="136" x2="887" y2="130" />
	<line stroke-dasharray="4,4" stroke="black" stroke-opacity="1" x1="958" y1="136" x2="881" y2="136" />
</g>
<g>
	<line stroke="black" stroke-opacity="1" x1="996" y1="235" x2="996" y2="193" />
	<polygon fill="#000000" stroke="black" stroke-opacity="1" points="996,235 990,229 996,223 1002,229" />
</g>
</svg>
